<svg width="168" height="56" viewBox="0 0 168 56" fill="none" xmlns="http://www.w3.org/2000/svg">
    <rect y="19.2" width="17.6" height="17.6" fill="#1ADEF5" />
    <path d="M0 0C9.72021 0 17.6 7.87979 17.6 17.6H0V0Z" fill="#1E808C" />
    <path fill-rule="evenodd" clip-rule="evenodd"
        d="M0.000152588 17.5999C0.000152588 17.5999 0.000152588 17.6 0.000152588 17.6H17.6002V17.5999H0.000152588ZM17.6002 10.9764V0C14.8939 0 12.3302 0.610817 10.0396 1.70211C13.4701 3.87302 16.1495 7.12366 17.6002 10.9764Z"
        fill="#1E808C" />
    <rect x="19.1999" width="17.6" height="17.6" fill="#1ADEF5" />
    <path d="M38.3997 0C48.12 0 55.9997 7.87979 55.9997 17.6H38.3997V0Z" fill="#1ADEF5" />
    <rect x="38.3997" y="19.2" width="17.6" height="17.6" fill="#1ADEF5" />
    <path d="M38.3997 38.3997H55.9997V55.9997C46.2795 55.9997 38.3997 48.1199 38.3997 38.3997Z" fill="#1ADEF5" />
    <path d="M0 38.3997H17.6V55.9997C7.87979 55.9997 0 48.1199 0 38.3997Z" fill="#1ADEF5" />
    <path d="M19.1999 38.3997H36.7999C36.7999 48.1199 28.9201 55.9997 19.1999 55.9997V38.3997Z" fill="#1E808C" />
    <path
        d="M74.5078 40.9998V14.3998H91.6078V18.9598H79.5238V25.3058H90.5438V29.8658H79.5238V36.4398H91.8358V40.9998H74.5078ZM102.921 40.9998C101.679 40.9998 100.666 40.6198 99.8808 39.8598C99.1208 39.0744 98.7408 38.0358 98.7408 36.7438V26.1038H94.0288V22.1518H98.7408V16.2998H103.529V22.1518H108.697V26.1038H103.529V35.9078C103.529 36.6678 103.883 37.0478 104.593 37.0478H108.241V40.9998H102.921ZM113.031 40.9998V14.3998H117.819V24.4698H118.503C118.706 24.0644 119.022 23.6591 119.453 23.2538C119.884 22.8484 120.454 22.5191 121.163 22.2658C121.898 21.9871 122.822 21.8478 123.937 21.8478C125.406 21.8478 126.686 22.1898 127.775 22.8738C128.89 23.5324 129.751 24.4571 130.359 25.6478C130.967 26.8131 131.271 28.1811 131.271 29.7518V40.9998H126.483V30.1318C126.483 28.7131 126.128 27.6491 125.419 26.9398C124.735 26.2304 123.747 25.8758 122.455 25.8758C120.986 25.8758 119.846 26.3698 119.035 27.3578C118.224 28.3204 117.819 29.6758 117.819 31.4238V40.9998H113.031ZM134.471 40.9998L141.463 14.3998H150.203L157.195 40.9998H152.027L150.583 35.1478H141.083L139.639 40.9998H134.471ZM142.261 30.5118H149.405L146.175 17.5538H145.491L142.261 30.5118ZM160.531 40.9998V22.1518H165.319V40.9998H160.531ZM162.925 19.9478C162.064 19.9478 161.329 19.6691 160.721 19.1118C160.138 18.5544 159.847 17.8198 159.847 16.9078C159.847 15.9958 160.138 15.2611 160.721 14.7038C161.329 14.1464 162.064 13.8678 162.925 13.8678C163.812 13.8678 164.546 14.1464 165.129 14.7038C165.712 15.2611 166.003 15.9958 166.003 16.9078C166.003 17.8198 165.712 18.5544 165.129 19.1118C164.546 19.6691 163.812 19.9478 162.925 19.9478Z"
        fill="white" />
</svg>