<svg width="107" height="198" viewBox="0 0 107 198" fill="none" xmlns="http://www.w3.org/2000/svg">
<g clip-path="url(#clip0_1_1234)">
<path d="M90.9794 272.813L5.26141 -0.158936H252.455L187.372 272.813H90.9794Z" fill="#164A51"/>
<path d="M98.9694 256.126C98.9694 255.622 93.2211 237.451 93.2211 237.451L88.2349 239.521L90.9332 222.957L102.976 234.225L98.2173 235.955L104.634 254.883L98.9694 256.126ZM193.645 147.562C193.892 147.128 197.751 128.464 197.751 128.464L192.39 127.836L202.837 114.703L207.834 130.417L202.842 129.602L199.194 149.245L193.645 147.562ZM49.3427 100.374C49.2784 99.8815 41.1791 82.6263 41.1791 82.6263L36.4861 85.3403L36.9665 68.5654L50.3925 78.1385L45.9115 80.4839L54.7923 98.3796L49.3427 100.374Z" fill="#0CC2D3"/>
<path d="M52.0308 236.284C65.0825 236.284 75.6625 225.704 75.6625 212.652C75.6625 199.601 65.0825 189.021 52.0308 189.021C38.9792 189.021 28.3992 199.601 28.3992 212.652C28.3992 225.704 38.9792 236.284 52.0308 236.284Z" fill="#10393E"/>
<path d="M57.0068 233.03C69.8183 230.543 78.1905 218.141 75.7042 205.329C73.2191 192.516 60.8169 184.145 48.0043 186.631C35.1917 189.116 26.8195 201.519 29.3058 214.331C31.7921 227.144 44.1942 235.515 57.0068 233.03Z" fill="#164A51"/>
<path d="M67.4594 219.679C72.9191 211.668 70.6831 200.632 62.4643 195.033C54.2465 189.432 43.158 191.389 37.6983 199.401C32.2386 207.412 34.4757 218.448 42.6934 224.048C50.9123 229.647 62.0008 227.692 67.4594 219.679Z" fill="#0C2F33"/>
<path fill-rule="evenodd" clip-rule="evenodd" d="M49.6021 195.505L55.0922 197.696L48.5399 214.116L43.0497 211.925L49.6021 195.505ZM56.9268 198.43L62.3786 200.605L53.6422 222.497L48.1915 220.322L56.9268 198.43Z" fill="#164A51"/>
<path d="M62.4214 195.107C66.2912 197.746 68.9798 201.789 69.9161 206.378C70.8524 210.967 69.9626 215.74 67.4357 219.684C67.5361 219.549 67.6353 219.413 67.7356 219.267C69.0666 217.314 69.9999 215.118 70.4821 212.804C70.9644 210.49 70.9862 208.104 70.5464 205.782C70.1065 203.46 69.2136 201.247 67.9185 199.27C66.6235 197.293 64.9518 195.59 62.9987 194.259C61.0457 192.928 58.8496 191.995 56.5359 191.513C54.2222 191.031 51.8362 191.009 49.514 191.449C47.1919 191.888 44.9791 192.781 43.0021 194.076C41.025 195.371 39.3224 197.043 37.9914 198.996C37.8922 199.143 37.8042 199.284 37.7095 199.43C40.4557 195.635 44.5733 193.061 49.1875 192.254C53.8017 191.446 58.55 192.47 62.4214 195.107ZM168.09 41.2805C172.26 32.0423 168.154 21.1725 158.916 17.0016C149.677 12.8296 138.808 16.9374 134.636 26.1756C130.465 35.4138 134.572 46.2835 143.811 50.4556C153.049 54.6264 163.919 50.5187 168.09 41.2805Z" fill="#10393E"/>
<path d="M188.466 106.194C188.417 106.155 188.373 106.109 188.335 106.058L188 105.672C187.64 105.226 187.292 104.771 186.956 104.307C186.425 103.681 185.961 103 185.571 102.276C186.176 102.833 186.712 103.459 187.17 104.141C187.959 105.201 188.575 106.137 188.466 106.194ZM180.765 106.191C180.723 106.16 180.686 106.123 180.654 106.082L180.378 105.763C180.154 105.492 179.856 105.106 179.515 104.677C179.081 104.177 178.713 103.624 178.419 103.031C178.926 103.458 179.368 103.955 179.73 104.51C180.388 105.372 180.879 106.134 180.765 106.191ZM194.787 104.552C194.146 103.915 193.57 103.215 193.069 102.463C192.497 101.766 191.997 101.014 191.576 100.218C192.213 100.857 192.787 101.556 193.289 102.306C193.861 103.003 194.363 103.756 194.787 104.552ZM200.625 101.979C199.944 101.295 199.331 100.546 198.797 99.7428C198.185 98.9959 197.644 98.1933 197.182 97.3456C197.861 98.0307 198.474 98.779 199.011 99.5804C199.62 100.329 200.16 101.132 200.625 101.979ZM206.655 98.1586C205.974 97.473 205.36 96.7243 204.821 95.9226C204.209 95.1755 203.67 94.3712 203.212 93.5209C203.889 94.2087 204.501 94.9597 205.04 95.7602C205.651 96.5082 206.192 97.3111 206.655 98.1586ZM212.076 94.1117C211.395 93.427 210.781 92.6782 210.243 91.8757C209.632 91.1292 209.093 90.3266 208.634 89.4785C209.311 90.1655 209.924 90.9141 210.463 91.7145C211.073 92.4622 211.613 93.2646 212.076 94.1117ZM217.485 90.0637C216.803 89.3796 216.189 88.6312 215.652 87.8289C215.041 87.082 214.502 86.279 214.043 85.4305C214.72 86.1175 215.333 86.8661 215.872 87.6665C216.48 88.4152 217.021 89.2181 217.485 90.0637ZM222.215 85.0799C221.535 84.3953 220.923 83.6469 220.386 82.845C219.774 82.0993 219.236 81.2961 218.778 80.4467C219.455 81.1345 220.067 81.8821 220.606 82.6826C221.214 83.4316 221.752 84.234 222.215 85.0799ZM226.835 79.9708C226.159 79.2827 225.548 78.5347 225.007 77.736C224.394 76.9897 223.855 76.1853 223.398 75.3343C224.075 76.0221 224.687 76.773 225.227 77.5747C225.839 78.3189 226.377 79.1218 226.835 79.9708ZM231.354 74.7231C230.677 74.0361 230.065 73.2875 229.527 72.4871C228.915 71.7409 228.377 70.9382 227.917 70.0899C228.595 70.7777 229.207 71.5253 229.745 72.3259C230.356 73.0712 230.895 73.8741 231.354 74.7231ZM235.293 69.1439C234.606 68.4601 233.987 67.7117 233.444 66.909C232.847 66.1611 232.323 65.3584 231.877 64.5118C232.554 65.1985 233.166 65.9472 233.705 66.7467C234.306 67.4964 234.837 68.2987 235.293 69.1439ZM238.733 62.6964C238.052 62.0098 237.438 61.2595 236.9 60.4559C236.287 59.7106 235.749 58.9078 235.291 58.0587C235.966 58.7465 236.578 59.4953 237.118 60.2947C237.73 61.0432 238.271 61.8473 238.733 62.6964ZM240.702 55.7472C240.087 55.1435 239.536 54.4785 239.057 53.7627C238.503 53.099 238.023 52.3773 237.625 51.6101C238.238 52.2161 238.788 52.8829 239.265 53.6003C239.82 54.2623 240.302 54.982 240.702 55.7472ZM241.573 48.8577C240.957 48.2556 240.405 47.5904 239.927 46.8732C239.382 46.2069 238.904 45.4877 238.502 44.7263C239.121 45.3259 239.673 45.9913 240.147 46.7108C240.695 47.3761 241.173 48.0944 241.573 48.8577ZM29.2145 122.331C29.2145 122.331 36.2809 116.638 59.7491 129.017C59.7491 129.017 83.3582 139.296 75.4663 149.116C68.7539 157.473 55.0167 152.72 47.4428 149.169C43.083 147.041 38.9866 144.411 35.2368 141.333C29.2145 136.303 24.1787 128.714 29.2145 122.331Z" fill="#1ADEF5"/>
<path opacity="0.4" d="M29.2145 122.332C29.2145 122.332 36.2809 116.638 59.7491 129.017C59.7491 129.017 83.3582 139.296 75.4663 149.116C68.7539 157.473 55.0167 152.72 47.4428 149.169C43.083 147.041 38.9866 144.412 35.2368 141.333C29.2145 136.303 24.1787 128.714 29.2145 122.332Z" fill="#225B62"/>
<path d="M29.7354 121.914C29.7354 121.914 38.0399 113.281 61.5036 125.67C61.5036 125.67 84.5421 138.796 75.7786 147.843C69.7664 154.042 56.7711 149.373 49.1972 145.821C45.2226 143.956 39.6749 140.833 36.3057 137.987C30.2574 132.961 25.8125 126.563 29.7354 121.914Z" fill="#225B62"/>
<path opacity="0.2" d="M71.6033 144.623C73.7152 140.623 67.12 132.993 56.8704 127.579C46.6208 122.167 36.6 121.021 34.4881 125.021C32.375 129.02 38.9713 136.651 49.221 142.064C59.4706 147.476 69.4913 148.622 71.6033 144.623Z" fill="#1ADEF5"/>
<path d="M30.7863 121.143C30.7863 121.143 30.943 121.001 31.3083 120.803C31.5171 120.68 31.7316 120.566 31.951 120.463C32.2126 120.344 32.5103 120.192 32.8599 120.056C34.8252 119.259 36.9065 118.784 39.0232 118.651C40.4847 118.549 41.9522 118.568 43.4106 118.709C45.0805 118.882 46.7346 119.186 48.3572 119.618C52.0254 120.66 55.5861 122.048 58.9913 123.765C66.3769 127.249 72.1648 132.164 75.2881 136.53C76.8555 138.724 77.6222 140.85 77.7429 142.36C77.7429 142.548 77.7801 142.72 77.7947 142.882V143.346C77.8015 143.592 77.7823 143.837 77.7383 144.078C77.7309 144.279 77.6866 144.478 77.6076 144.663C77.5241 144.663 77.6752 143.832 77.435 142.391C77.0148 140.366 76.1198 138.47 74.8236 136.859C71.6585 132.681 65.9439 127.918 58.6316 124.491C55.2541 122.785 51.7298 121.386 48.1012 120.312C46.5328 119.886 44.9353 119.575 43.3215 119.382C41.902 119.219 40.4721 119.167 39.0446 119.225C36.9714 119.311 34.9208 119.689 32.9534 120.348C31.544 120.818 30.8122 121.211 30.7863 121.143Z" fill="#15484F"/>
<path opacity="0.4" d="M71.8536 143.996C71.8536 143.996 75.181 135.864 57.5785 126.305C39.9771 116.747 34.4813 125 34.4813 125C34.4813 125 39.0469 118.172 57.3699 127.783C73.3273 136.171 71.8536 143.996 71.8536 143.996Z" fill="#0CC2D3"/>
<path d="M67.3455 153.566C67.2407 153.566 67.4019 152.903 67.6748 152.157C67.7999 151.683 68.0142 151.238 68.3062 150.846C68.2632 151.332 68.1361 151.807 67.9307 152.25C67.7908 152.712 67.5949 153.154 67.3455 153.566ZM71.6968 152.229C71.592 152.229 71.6968 151.681 71.9314 151.086C72.167 150.489 72.3971 150.014 72.4546 150.04C72.4455 150.436 72.3492 150.825 72.1727 151.179C72.069 151.552 71.9085 151.906 71.6968 152.229ZM63.5129 153.722C63.558 153.181 63.6933 152.652 63.9143 152.156C64.0496 151.636 64.2729 151.143 64.5728 150.698C64.5266 151.239 64.3902 151.769 64.1703 152.265C64.035 152.785 63.814 153.278 63.5129 153.722ZM59.7728 153.312C59.8291 152.742 59.978 152.185 60.2125 151.662C60.3571 151.105 60.5913 150.576 60.906 150.095C60.7021 151.217 60.3195 152.3 59.7728 153.301V153.312ZM55.7079 152.209C55.7642 151.638 55.912 151.081 56.1465 150.558C56.294 150.002 56.5284 149.473 56.8411 148.991C56.7813 149.561 56.6336 150.118 56.4013 150.641C56.2547 151.197 56.0213 151.727 55.7079 152.209ZM51.9553 150.869C52.0116 150.299 52.1597 149.742 52.3939 149.22C52.5414 148.664 52.7759 148.135 53.0885 147.652C53.0286 148.222 52.8802 148.779 52.6488 149.303C52.5022 149.859 52.2699 150.388 51.9553 150.869ZM48.2016 149.547C48.258 148.976 48.4068 148.419 48.6414 147.896C48.7885 147.34 49.0226 146.811 49.3348 146.328C49.1304 147.455 48.7478 148.541 48.2016 149.547ZM44.6734 147.548C44.7298 146.979 44.8764 146.422 45.1076 145.898C45.2564 145.343 45.4907 144.814 45.8021 144.332C45.7458 144.901 45.5992 145.458 45.368 145.981C45.2192 146.537 44.9847 147.066 44.6734 147.548ZM41.1757 145.478C41.381 144.354 41.7639 143.27 42.3101 142.266C42.2537 142.835 42.1048 143.392 41.8703 143.915C41.7237 144.47 41.488 144.997 41.1757 145.478ZM37.7062 143.309C37.766 142.74 37.914 142.183 38.1448 141.659C38.2923 141.103 38.5267 140.574 38.8394 140.092C38.7795 140.662 38.6311 141.219 38.3996 141.743C38.254 142.299 38.0198 142.827 37.7062 143.309ZM34.5298 140.846C34.7354 139.722 35.1182 138.638 35.6641 137.634C35.6037 138.203 35.4554 138.76 35.2244 139.285C35.0778 139.839 34.8433 140.366 34.5298 140.846ZM31.4684 137.814C31.6738 136.69 32.0567 135.606 32.6028 134.602C32.5424 135.171 32.394 135.728 32.163 136.252C32.0164 136.806 31.7819 137.334 31.4684 137.814ZM29.1524 134.237C29.193 133.729 29.3204 133.231 29.5279 132.765C29.6574 132.268 29.873 131.797 30.165 131.375C30.1233 131.879 29.9958 132.371 29.7895 132.833C29.6633 133.335 29.4475 133.811 29.1524 134.237ZM27.4565 130.506C27.4972 129.997 27.6241 129.499 27.832 129.033C27.9606 128.538 28.1771 128.069 28.4702 127.649C28.4299 128.158 28.3025 128.656 28.0936 129.122C27.9664 129.618 27.7506 130.087 27.4565 130.506ZM95.943 74.2495C106.668 63.5241 106.668 46.1358 95.943 35.4103C85.2176 24.6848 67.8293 24.6848 57.1038 35.4103C46.3783 46.1358 46.3783 63.5252 57.1038 74.2495C67.8293 84.975 85.2176 84.975 95.943 74.2495Z" fill="#1ADEF5"/>
<path opacity="0.2" d="M95.943 74.2495C106.668 63.5241 106.668 46.1358 95.943 35.4103C85.2175 24.6848 67.8293 24.6848 57.1038 35.4103C46.3783 46.1358 46.3783 63.5252 57.1038 74.2495C67.8293 84.975 85.2175 84.975 95.943 74.2495Z" fill="#0CC2D3"/>
<path d="M82.4257 28.0125C82.8057 28.4274 83.1157 28.8999 83.3446 29.4129C83.6547 29.8764 83.8859 30.3883 84.0291 30.9272C83.6514 30.5194 83.3411 30.0538 83.1101 29.5482C82.7981 29.0783 82.5668 28.5597 82.4257 28.0136V28.0125ZM86.9314 29.5065C87.2979 29.8955 87.5967 30.3409 87.8188 30.828C88.1165 31.2712 88.3353 31.7628 88.4672 32.2792C88.1008 31.8907 87.8006 31.4446 87.5787 30.9588C87.281 30.5155 87.0621 30.0242 86.9314 29.5065ZM91.0448 31.5384C91.4158 31.9251 91.7157 32.3728 91.9334 32.8599C92.2333 33.303 92.4532 33.7947 92.5862 34.3122C92.2157 33.9265 91.9151 33.4794 91.6977 32.9907C91.3997 32.5469 91.1789 32.0559 91.0448 31.5384ZM77.6594 27.3743C78.0372 27.7824 78.3472 28.2481 78.5795 28.7533C78.8885 29.2167 79.1208 29.7286 79.2628 30.2676C78.885 29.8598 78.5748 29.3943 78.3439 28.8886C78.0331 28.4254 77.8018 27.9136 77.6594 27.3743ZM73.2292 27.5682C73.6069 27.9741 73.917 28.4398 74.1425 28.9472C74.4503 29.4118 74.6815 29.9237 74.827 30.4616C74.4447 30.0561 74.1323 29.5901 73.9023 29.0825C73.5988 28.6168 73.3716 28.1056 73.2292 27.5682ZM68.8722 28.5345C69.2489 28.9326 69.5589 29.387 69.7923 29.882C70.099 30.3341 70.3279 30.8337 70.4711 31.3602C70.0943 30.9653 69.7836 30.5123 69.551 30.0184C69.2446 29.5645 69.0153 29.0632 68.8722 28.5345ZM64.8649 29.8831C65.2448 30.289 65.5549 30.7547 65.7838 31.2621C66.0917 31.7267 66.3217 32.2386 66.4683 32.7765C66.0867 32.3684 65.7743 31.9007 65.5437 31.3918C65.2387 30.9282 65.0096 30.4189 64.8649 29.8831ZM61.0368 32.0672C61.4179 32.4731 61.7291 32.9388 61.9557 33.4462C62.2658 33.9097 62.497 34.4216 62.6402 34.9606C62.2643 34.5533 61.9543 34.09 61.7212 33.5872C61.4117 33.1212 61.1806 32.6078 61.0368 32.0672ZM57.698 34.761C58.0746 35.1714 58.3858 35.6382 58.617 36.1445C58.9271 36.6068 59.1582 37.1176 59.3014 37.6555C58.9235 37.2473 58.6133 36.7814 58.3824 36.2753C58.0725 35.8117 57.8412 35.3 57.698 34.761ZM55.0561 37.5912C55.4327 38.0016 55.7428 38.4684 55.9751 38.9747C56.284 39.437 56.5152 39.9467 56.6595 40.4845C56.2814 40.0768 55.9708 39.6112 55.7394 39.1055C55.4295 38.6418 55.1994 38.1302 55.0561 37.5912ZM52.8134 41.2006C53.2058 41.6256 53.5294 42.1083 53.7741 42.6314C54.0932 43.1129 54.3333 43.6417 54.4844 44.1988C54.0963 43.7728 53.7757 43.2898 53.5339 42.7668C53.2116 42.2861 52.9683 41.7581 52.8134 41.2006ZM50.9066 45.0805C51.2957 45.5045 51.6159 45.9848 51.8572 46.5069C52.1707 46.9918 52.4097 47.5195 52.5676 48.0742C52.1768 47.6524 51.8559 47.1709 51.617 46.6479C51.2973 46.1671 51.0574 45.6379 50.9066 45.0805ZM49.6291 49.2582C50.0159 49.6754 50.3541 50.1343 50.6372 50.6271C51.0047 51.0736 51.2878 51.5832 51.4727 52.1312C51.0676 51.7272 50.7167 51.2724 50.4286 50.7781C50.0593 50.3324 49.7878 49.8148 49.6291 49.2582ZM49.0743 53.8959C49.4994 54.3864 49.8512 54.9355 50.1185 55.5264C50.468 56.0642 50.7386 56.6472 50.9281 57.2606C50.5041 56.7796 50.1524 56.2394 49.8839 55.6572C49.534 55.1103 49.2615 54.5176 49.0743 53.8959ZM49.5941 60.1483C50.0452 60.6647 50.4252 61.2375 50.7274 61.8509C51.1092 62.4208 51.413 63.0394 51.6305 63.69C51.1795 63.1735 50.7961 62.6019 50.4917 61.9873C50.1127 61.417 49.8108 60.7979 49.5941 60.1483Z" fill="#1ADEF5"/>
<path d="M85.8332 84.0979C100.438 80.0015 108.955 64.8412 104.859 50.2369C100.762 35.6349 85.6021 27.1172 70.9978 31.2137C56.3934 35.3079 47.8758 50.4692 51.9734 65.0735C56.0698 79.6778 71.23 88.1955 85.8343 84.0991L85.8332 84.0979Z" fill="#1ADEF5"/>
<path opacity="0.2" d="M79.9946 77.726C91.5094 76.7405 100.064 66.8393 99.1036 55.6098C98.1429 44.3792 88.0308 36.0746 76.5161 37.0612C65.0013 38.0456 56.4464 47.9468 57.4071 59.1763C58.3678 70.4069 68.4799 78.7115 79.9946 77.726Z" fill="#01181A"/>
<path opacity="0.3" d="M76.5364 37.1424C81.9611 36.6738 87.3546 38.3414 91.5682 41.79C95.7818 45.2387 98.4827 50.1961 99.0957 55.6064C99.0957 55.408 99.0957 55.2095 99.0596 55.0111C98.5867 49.4837 95.9373 44.3706 91.6945 40.7966C87.4516 37.2226 81.9628 35.4805 76.4354 35.9534C70.9081 36.4264 65.795 39.0757 62.221 43.3185C58.647 47.5614 56.9048 53.0502 57.3778 58.5776C57.3778 58.776 57.4195 58.9745 57.4409 59.1684C57.1265 53.7328 58.9463 48.3891 62.5129 44.2752C66.0795 40.1612 71.1111 37.602 76.5364 37.1424Z" fill="#0CC2D3"/>
<path fill-rule="evenodd" clip-rule="evenodd" d="M76.9198 45.1266L82.7696 44.0352L87.1547 67.5247L81.3049 68.6174L76.9198 45.1266ZM69.0662 46.5936L74.9567 45.4942L78.2458 63.1126L72.3554 64.2119L69.0662 46.5936Z" fill="#063646"/>
<path d="M173.478 221.999C191.235 204.243 191.235 175.454 173.478 157.697C155.721 139.941 126.933 139.941 109.176 157.697C91.4203 175.454 91.4203 204.243 109.176 221.999C126.933 239.756 155.721 239.756 173.478 221.999Z" fill="#1ADEF5"/>
<path opacity="0.4" d="M173.478 221.999C191.235 204.243 191.235 175.454 173.478 157.697C155.721 139.941 126.933 139.941 109.176 157.697C91.4203 175.454 91.4203 204.243 109.176 221.999C126.933 239.756 155.721 239.756 173.478 221.999Z" fill="#0CC2D3"/>
<path d="M170.712 217.218C188.468 199.462 188.468 170.673 170.712 152.916C152.955 135.16 124.167 135.16 106.41 152.916C88.6533 170.673 88.6533 199.462 106.41 217.218C124.167 234.975 152.955 234.975 170.712 217.218Z" fill="#00E4FF"/>
<path opacity="0.2" d="M141.577 218.245C160.622 216.395 174.598 199.84 172.793 181.269C170.989 162.699 154.087 149.144 135.043 150.994C115.998 152.845 102.022 169.4 103.827 187.971C105.631 206.541 122.532 220.095 141.577 218.245Z" fill="#01181A"/>
<path d="M141.576 218.1C132.606 218.971 123.65 216.311 116.611 210.683C109.572 205.055 105.005 196.904 103.881 187.962C103.881 188.291 103.917 188.62 103.949 188.95C104.838 198.092 109.323 206.507 116.416 212.343C123.509 218.179 132.63 220.959 141.772 220.072C146.299 219.632 150.696 218.305 154.71 216.166C158.725 214.028 162.278 211.119 165.169 207.606C168.059 204.094 170.229 200.047 171.554 195.695C172.88 191.344 173.336 186.775 172.895 182.247C172.858 181.919 172.811 181.594 172.775 181.266C173.392 190.259 170.478 199.138 164.652 206.016C158.826 212.894 150.548 217.229 141.576 218.1Z" fill="#15484F"/>
<path opacity="0.3" d="M135.053 151.111C144.023 150.24 152.98 152.901 160.02 158.529C167.06 164.156 171.628 172.306 172.754 181.248C172.728 180.919 172.713 180.596 172.681 180.261C172.017 173.443 169.347 166.975 165.008 161.675C160.669 156.375 154.856 152.48 148.303 150.483C141.751 148.487 134.753 148.477 128.196 150.457C121.638 152.437 115.815 156.316 111.462 161.605C108.572 165.117 106.402 169.165 105.076 173.515C103.75 177.866 103.294 182.436 103.735 186.963C103.771 187.297 103.818 187.62 103.86 187.945C103.243 178.953 106.156 170.075 111.981 163.197C117.805 156.319 126.082 151.983 135.053 151.111Z" fill="#0CC2D3"/>
<path d="M179.646 165.5C179.566 165.405 179.498 165.302 179.443 165.192L178.92 164.247C178.701 163.823 178.398 163.311 178.053 162.721C177.709 162.132 177.301 161.431 176.789 160.689C174.013 156.428 170.544 152.661 166.526 149.543C163.755 147.402 160.75 145.581 157.568 144.116C153.908 142.45 150.045 141.273 146.077 140.616C143.938 140.249 141.775 140.046 139.605 140.011C137.335 139.953 135.065 140.075 132.815 140.376C123.305 141.618 114.436 145.849 107.487 152.458C104.274 155.522 101.528 159.041 99.3392 162.904C97.3572 166.399 95.8434 170.14 94.8368 174.03C93.9905 177.423 93.5297 180.901 93.4635 184.398C93.3944 187.29 93.6077 190.181 94.1005 193.032C94.4691 195.187 94.9929 197.313 95.6679 199.393C95.9227 200.256 96.1899 201.002 96.4504 201.655C96.712 202.308 96.9048 202.852 97.0931 203.29L97.4957 204.293C97.5498 204.405 97.5859 204.525 97.605 204.648C97.5302 204.549 97.467 204.443 97.4167 204.33L96.942 203.358C96.7278 202.929 96.4763 202.392 96.226 201.744C95.9757 201.096 95.6464 200.355 95.3691 199.493C94.6349 197.413 94.0641 195.279 93.6619 193.11C93.1176 190.235 92.8604 187.313 92.894 184.388C92.9669 176.723 94.9773 169.202 98.7382 162.523C100.949 158.587 103.731 154.999 106.992 151.877C114.054 145.133 123.088 140.824 132.774 139.582C135.056 139.286 137.358 139.169 139.658 139.233C141.864 139.277 144.064 139.492 146.238 139.874C153.795 141.148 160.905 144.319 166.902 149.089C169.2 150.902 171.31 152.94 173.201 155.173C174.625 156.851 175.917 158.636 177.066 160.512C177.562 161.269 177.939 161.985 178.273 162.601C178.557 163.115 178.825 163.637 179.077 164.168L179.531 165.156C179.646 165.38 179.678 165.495 179.646 165.5Z" fill="#15484F"/>
<g opacity="0.2">
<path d="M109.215 170.213L146.127 166.593L151.595 172.302L151.627 172.338H151.679L162.868 171.179L165.87 170.855L166.644 170.761H166.791C166.798 170.808 166.813 170.853 166.832 170.897C166.909 171.065 167.037 171.204 167.197 171.296C167.357 171.388 167.542 171.428 167.726 171.41C167.909 171.393 168.083 171.318 168.222 171.197C168.362 171.076 168.46 170.914 168.503 170.735C168.537 170.591 168.533 170.441 168.492 170.299C168.451 170.158 168.374 170.029 168.269 169.925C168.128 169.79 167.941 169.713 167.746 169.711C167.616 169.711 167.553 169.748 167.553 169.764C167.553 169.778 167.85 169.764 168.075 170.077C168.179 170.206 168.229 170.37 168.214 170.535C168.199 170.7 168.12 170.853 167.994 170.96C167.899 171.038 167.785 171.085 167.663 171.098C167.542 171.109 167.42 171.085 167.313 171.026C167.206 170.968 167.119 170.88 167.062 170.772C167.014 170.68 166.989 170.578 166.989 170.474C166.989 170.371 167.014 170.268 167.062 170.177C167.245 169.842 167.547 169.816 167.531 169.764C167.517 169.711 167.464 169.727 167.333 169.764C167.146 169.806 166.982 169.918 166.874 170.077C166.806 170.176 166.761 170.288 166.741 170.407C166.72 170.524 166.724 170.645 166.753 170.761H166.608L165.834 170.824L162.826 171.095L151.679 172.14L146.232 166.395L146.19 166.347H146.132L109.183 169.915L95.2371 171.278C95.201 171.383 95.1695 171.487 95.1323 171.592L109.215 170.213ZM167.147 161.528L172.975 167.478L173.017 167.52H173.08L180.2 166.784C180.2 166.731 180.152 166.679 180.131 166.621L173.122 167.253L167.314 161.273L167.262 161.22H167.189L162.545 161.67L145.36 163.389L140.137 163.942L138.726 164.109C138.561 164.121 138.397 164.148 138.236 164.187C138.401 164.202 138.567 164.202 138.732 164.187L140.153 164.077L145.376 163.623L162.571 161.998L167.147 161.528ZM129.877 182.099L133.492 183.604H133.518L139.604 183.044L141.217 182.883H141.327C141.343 182.999 141.403 183.104 141.494 183.177C141.586 183.25 141.702 183.285 141.818 183.274C141.878 183.269 141.936 183.251 141.989 183.223C142.041 183.195 142.088 183.156 142.126 183.11C142.164 183.064 142.193 183.01 142.211 182.953C142.229 182.896 142.235 182.835 142.229 182.775C142.223 182.716 142.206 182.658 142.177 182.605C142.149 182.552 142.111 182.505 142.064 182.467C141.97 182.391 141.85 182.354 141.729 182.366C141.615 182.379 141.51 182.435 141.434 182.522C141.359 182.609 141.319 182.721 141.322 182.836H141.213L139.594 182.945L133.528 183.415L129.92 181.88H129.863L103.94 184.356L94.856 185.244L93.0801 184.382V184.711L94.7669 185.536H94.8504L103.97 184.653L129.877 182.099ZM133.2 179.788L129.789 178.743H129.727L127.544 178.967L127.199 174.966V174.831H127.063L117.061 175.938L114.266 176.267L113.958 176.308C113.939 176.198 113.879 176.098 113.79 176.03C113.701 175.961 113.59 175.929 113.478 175.938C113.419 175.944 113.361 175.962 113.308 175.99C113.256 176.018 113.209 176.056 113.171 176.102C113.134 176.148 113.105 176.201 113.088 176.258C113.071 176.315 113.065 176.375 113.071 176.435C113.087 176.547 113.145 176.649 113.233 176.721C113.321 176.793 113.433 176.829 113.546 176.821C113.66 176.814 113.766 176.764 113.844 176.682C113.923 176.6 113.967 176.491 113.968 176.377L114.277 176.35L117.082 176.095L126.943 175.139C127.04 176.41 127.147 177.747 127.261 179.15V179.296H127.414L129.717 179.066L133.127 180.112H133.19L137.437 179.699L156.575 177.792L160.121 179.741H160.173L163.766 179.348L164.718 179.234H164.764C164.842 179.404 164.97 179.545 165.131 179.638C165.292 179.731 165.478 179.772 165.663 179.754C165.792 179.741 165.916 179.7 166.027 179.634C166.138 179.568 166.234 179.479 166.307 179.372C166.38 179.265 166.429 179.144 166.45 179.016C166.471 178.889 166.464 178.758 166.43 178.633C166.388 178.493 166.311 178.365 166.206 178.262C166.067 178.125 165.88 178.046 165.684 178.042C165.554 178.042 165.49 178.08 165.49 178.1C165.49 178.121 165.788 178.1 166.013 178.413C166.078 178.494 166.124 178.589 166.145 178.691C166.166 178.793 166.162 178.899 166.133 178.999C166.108 179.087 166.063 179.168 166.002 179.237C165.941 179.306 165.865 179.36 165.781 179.395C165.696 179.431 165.604 179.447 165.512 179.442C165.421 179.438 165.331 179.412 165.25 179.368C165.142 179.309 165.055 179.218 165 179.108C164.952 179.016 164.927 178.914 164.927 178.81C164.927 178.707 164.952 178.605 165 178.513C165.183 178.179 165.485 178.147 165.47 178.1C165.454 178.054 165.397 178.058 165.272 178.1C165.085 178.141 164.92 178.251 164.812 178.409C164.734 178.522 164.685 178.653 164.669 178.789C164.653 178.925 164.67 179.063 164.718 179.191H164.681L163.725 179.26L160.153 179.568L156.664 177.568H156.595L137.416 179.39L133.2 179.788ZM113.145 214.083C113.007 213.944 112.819 213.865 112.623 213.863C112.492 213.863 112.429 213.9 112.429 213.921C112.429 213.942 112.727 213.921 112.951 214.234C113.016 214.315 113.06 214.411 113.08 214.513C113.101 214.615 113.096 214.72 113.066 214.819C113.032 214.936 112.963 215.04 112.869 215.117C112.775 215.195 112.66 215.242 112.539 215.254C112.418 215.266 112.296 215.241 112.189 215.183C112.082 215.125 111.995 215.037 111.939 214.929C111.891 214.837 111.866 214.735 111.866 214.631C111.866 214.527 111.891 214.425 111.939 214.333C112.121 214 112.424 213.968 112.409 213.921C112.393 213.874 112.336 213.879 112.21 213.921C112.023 213.961 111.859 214.072 111.75 214.23C111.667 214.352 111.617 214.493 111.604 214.641C111.591 214.788 111.617 214.936 111.677 215.071C111.753 215.24 111.88 215.381 112.041 215.475C112.201 215.568 112.387 215.608 112.572 215.591C112.756 215.573 112.931 215.497 113.07 215.375C113.21 215.252 113.307 215.089 113.349 214.908V214.877H113.485L114.158 214.829L116.707 214.627L125.639 213.817H125.718L125.754 213.744L128.323 208.295V208.212C128.246 207.386 128.162 206.541 128.079 205.684L127.075 195.577V195.51L127.018 195.478L122.745 192.673H122.709L118.531 193.127L117.407 193.264H117.255C117.239 193.066 117.152 192.881 117.011 192.741C116.871 192.603 116.684 192.524 116.487 192.522C116.358 192.522 116.296 192.558 116.296 192.579C116.296 192.599 116.592 192.579 116.817 192.893C116.881 192.973 116.925 193.068 116.945 193.168C116.965 193.269 116.96 193.373 116.932 193.472C116.908 193.561 116.865 193.644 116.805 193.714C116.745 193.784 116.67 193.84 116.585 193.876C116.5 193.912 116.408 193.928 116.316 193.923C116.224 193.919 116.134 193.893 116.053 193.848C115.91 193.764 115.804 193.629 115.757 193.47C115.711 193.31 115.727 193.139 115.803 192.992C115.987 192.657 116.289 192.626 116.274 192.579C116.258 192.532 116.201 192.537 116.076 192.579C115.888 192.617 115.723 192.728 115.616 192.887C115.531 193.007 115.478 193.148 115.465 193.294C115.451 193.441 115.476 193.588 115.537 193.722C115.613 193.892 115.74 194.034 115.901 194.128C116.062 194.222 116.248 194.262 116.433 194.244C116.618 194.227 116.793 194.151 116.933 194.029C117.073 193.906 117.171 193.742 117.214 193.561C117.227 193.48 117.227 193.397 117.214 193.315H117.36L118.493 193.232L122.64 192.877C123.837 193.681 125.252 194.631 126.819 195.671C127.101 198.622 127.426 202.064 127.775 205.721C127.859 206.562 127.937 207.392 128.021 208.207L125.524 213.551L116.681 214.47L114.143 214.757L113.474 214.845H113.344C113.375 214.712 113.373 214.572 113.338 214.44C113.304 214.307 113.237 214.185 113.145 214.083ZM160.843 200.989C160.956 200.977 161.061 200.922 161.136 200.835C161.211 200.749 161.25 200.638 161.245 200.524L162.567 200.425L167.456 200.002H167.513L172.633 195.776L182.979 194.784C182.979 194.674 183.026 194.569 183.052 194.46L172.559 195.504H172.518L172.48 195.536L167.398 199.818L162.557 200.341L161.235 200.503C161.219 200.384 161.158 200.277 161.063 200.204C160.969 200.131 160.849 200.099 160.731 200.114C160.672 200.121 160.616 200.14 160.564 200.169C160.513 200.199 160.468 200.238 160.432 200.285C160.396 200.332 160.369 200.385 160.354 200.442C160.338 200.499 160.334 200.559 160.342 200.618C160.361 200.732 160.423 200.836 160.517 200.905C160.61 200.974 160.727 201.004 160.843 200.989ZM137.237 230.342C137.237 230.185 137.237 229.981 137.201 229.741C137.148 229.036 137.07 228.106 136.987 226.978C136.788 224.653 136.49 221.436 136.145 217.889C136.036 216.781 135.931 215.701 135.826 214.677V214.614L135.78 214.578L130.556 210.332L130.311 208.242C130.282 208.01 130.247 207.778 130.207 207.548C130.263 207.56 130.323 207.56 130.379 207.548C130.457 207.54 130.532 207.512 130.596 207.467C130.66 207.422 130.712 207.361 130.745 207.29C130.779 207.219 130.793 207.14 130.788 207.062C130.782 206.984 130.756 206.908 130.712 206.843C130.669 206.778 130.609 206.725 130.539 206.69C130.469 206.654 130.39 206.638 130.312 206.642C130.234 206.645 130.158 206.67 130.091 206.712C130.025 206.754 129.971 206.812 129.934 206.881C129.893 206.958 129.875 207.045 129.882 207.132C129.89 207.219 129.921 207.301 129.974 207.371C130.026 207.437 130.096 207.488 130.175 207.516C130.175 207.615 130.175 207.855 130.207 208.231C130.248 208.754 130.3 209.49 130.369 210.362V210.399L130.399 210.431L135.56 214.739C135.937 218.815 136.346 222.887 136.788 226.957C136.918 228.074 137.023 228.999 137.106 229.704L137.185 230.304C137.079 230.322 136.982 230.378 136.913 230.461H137.628C137.577 230.412 137.514 230.376 137.447 230.355C137.379 230.335 137.307 230.33 137.237 230.342ZM116.122 163.297C116.128 163.382 116.159 163.463 116.209 163.532C116.26 163.6 116.329 163.652 116.408 163.683C116.487 163.714 116.573 163.722 116.657 163.706C116.74 163.69 116.818 163.651 116.88 163.593C116.947 163.534 116.995 163.456 117.018 163.37C117.041 163.284 117.038 163.193 117.009 163.108C116.981 163.024 116.928 162.95 116.857 162.895C116.786 162.841 116.7 162.809 116.611 162.803C116.545 162.799 116.479 162.808 116.418 162.831C116.356 162.854 116.3 162.891 116.253 162.938C116.207 162.985 116.171 163.041 116.148 163.103C116.126 163.165 116.117 163.231 116.122 163.297Z" fill="#0CC2D3"/>
<path d="M145.414 203.13C145.168 200.163 144.891 197.04 144.646 193.869C144.608 193.432 144.573 192.995 144.541 192.558V192.495L144.489 192.453L140.118 188.688L140.065 188.645H139.997L112.972 191.288H112.91L96.4977 202.304L96.5767 202.503L113.035 191.534L139.961 188.922L144.238 192.579C144.27 192.992 144.307 193.403 144.337 193.822C144.609 197.05 144.86 200.225 145.121 203.223V203.38H145.278L181.396 200.247L181.481 200.011L145.414 203.13Z" fill="#0CC2D3"/>
</g>
</g>
<defs>
<clipPath id="clip0_1_1234">
<rect width="279" height="200" fill="white" transform="translate(0 -1)"/>
</clipPath>
</defs>
</svg>
