<svg width="113" height="89" viewBox="0 0 113 89" fill="none" xmlns="http://www.w3.org/2000/svg">
<path d="M76.3413 20.9025L31.2524 58.4868L87.0014 31.174L82.626 22.2433C81.4609 19.865 78.3756 19.2068 76.3413 20.9025Z" fill="#075168"/>
<path d="M68.9164 24.5628L23.8915 62.0933L56.8833 18.0308C58.4562 15.9003 61.6097 15.8068 63.3062 17.8404L68.9164 24.5628Z" fill="#023443"/>
<path d="M92.5031 67.5423L95.2853 73.2211C96.9966 76.714 101.215 78.1583 104.708 76.4471L118.293 69.7914C119.276 69.3099 120.463 69.7162 120.945 70.6991L128.229 85.5658C130.111 89.4091 128.522 94.0511 124.679 95.934L51.9725 131.555C48.1292 133.438 43.4872 131.848 41.6043 128.005L16.3142 76.3849C14.4312 72.5416 16.0204 67.8996 19.8637 66.0167L92.5702 30.396C96.4134 28.5131 101.055 30.1022 102.938 33.9455L110.222 48.8123C110.703 49.7951 110.297 50.9822 109.314 51.4638L95.7291 58.1195C92.2362 59.8306 90.7919 64.0495 92.5031 67.5423Z" fill="#19BACD"/>
<path d="M112.234 52.1963L96.6076 59.8521C94.0647 61.098 93.0133 64.1694 94.2591 66.7122L97.0174 72.3423C98.2632 74.8852 101.335 75.9367 103.877 74.6908L119.504 67.035C121.051 66.2773 121.69 64.4092 120.932 62.8626L116.406 53.6247C115.649 52.0781 113.781 51.4386 112.234 52.1963ZM103.96 68.9248C102.412 69.6832 100.543 69.0434 99.7849 67.4961C99.0268 65.9488 99.6663 64.0795 101.214 63.3211C102.761 62.5631 104.631 63.2034 105.389 64.7507C106.147 66.298 105.507 68.1668 103.96 68.9248Z" fill="#19BACD"/>
</svg>
