<svg width="178" height="152" viewBox="0 0 178 152" fill="none" xmlns="http://www.w3.org/2000/svg">
<path d="M50.6849 47.3585C45.0921 51.0779 40.6822 55.9092 37.548 61.3624C40.209 57.4754 43.6487 54.0131 47.825 51.2355C64.9671 39.8354 87.9342 44.2311 99.1215 61.0531C110.308 77.8763 105.482 100.756 88.3388 112.156C71.2096 123.547 48.2668 119.166 37.0698 102.375C37.6554 103.448 38.29 104.505 38.9792 105.542C51.8139 124.842 77.8645 130.083 97.164 117.248C116.463 104.413 121.705 78.3624 108.87 59.063C96.0354 39.7643 69.984 34.5239 50.6849 47.3585Z" fill="#3F3A36"/>
<path d="M79.2036 40.6693C106.262 47.3857 122.425 72.6823 111.906 96.9605C105.89 110.782 98.5921 116.638 82.7909 123.334C87.781 122.258 92.6565 120.246 97.1638 117.248C116.463 104.413 121.705 78.3629 108.869 59.0634C101.848 48.5043 90.8683 42.1536 79.2036 40.6693Z" fill="#544C47"/>
<path d="M62.6465 121.836C69.4428 121.835 76.489 120.643 83.4207 118.964C69.1448 121.843 54.0257 116.227 45.5947 103.55C34.4065 86.7279 39.2352 63.8483 56.377 52.4482C63.7037 47.5759 72.0925 45.595 80.1716 46.2329C76.8101 44.1667 73.4443 42.0755 69.926 40.342C62.2131 40.4929 54.4517 42.7664 47.5517 47.3548C28.2527 60.1895 23.0114 86.2405 35.8461 105.54C41.6446 114.259 50.1408 120.108 59.494 122.718C60.3927 122.163 61.4402 121.836 62.6465 121.836Z" fill="#68615D"/>
<path opacity="0.5" d="M98.0891 61.7403C108.905 78.0042 104.237 100.122 87.665 111.144C71.0929 122.165 48.8905 117.915 38.0747 101.652C27.259 85.3886 31.9263 63.2702 48.4984 52.2492C65.0708 41.2274 87.2737 45.4772 98.0891 61.7403Z" fill="#B5DBEA"/>
<path opacity="0.3" d="M47.5522 47.3548C28.2532 60.1895 23.0119 86.2405 35.8465 105.54C41.645 114.259 50.1413 120.108 59.4945 122.718C60.3928 122.163 61.4407 121.836 62.647 121.836C69.4433 121.835 76.4895 120.643 83.4212 118.964C75.8303 120.495 68.0012 119.623 61.0662 116.566C47.3018 113.543 35.4494 100.322 34.7928 86.2037C34.1925 78.1551 35.7868 70.2311 40.3062 63.5289C48.7569 51.9365 61.4152 45.2673 75.0809 43.1464C73.3884 42.1549 71.6763 41.2043 69.9269 40.3424C62.2136 40.4929 54.4517 42.7664 47.5522 47.3548Z" fill="#68615D"/>
<path opacity="0.5" d="M58.1241 47.6963C54.7955 48.7104 51.551 50.2185 48.4984 52.2487C31.9263 63.2697 27.259 85.3882 38.0747 101.652C48.8905 117.915 71.0929 122.165 87.665 111.144C91.0558 108.888 93.9387 106.163 96.3021 103.124C77.3019 89.6025 62.3935 70.9304 58.1241 47.6963Z" fill="url(#paint0_radial_1_1403)"/>
<path d="M88.9471 113.071C71.3271 124.789 47.6328 120.247 36.1269 102.946C24.6219 85.6462 29.5957 62.0384 47.216 50.3211C64.8356 38.6033 88.5303 43.1453 100.036 60.4454C111.541 77.7456 106.567 101.353 88.9471 113.071ZM48.4332 52.1515C31.8232 63.1976 27.1236 85.4381 37.9577 101.73C48.7915 118.02 71.1194 122.287 87.7298 111.24C104.34 100.194 109.04 77.9538 98.2058 61.6631C87.3716 45.3715 65.0433 41.1046 48.4332 52.1515Z" fill="#908F93"/>
<path d="M91.3835 116.735C72.0631 129.585 45.8913 124.32 33.042 105C20.1931 85.6775 25.4586 59.5052 44.779 46.6568C64.1006 33.8074 90.2725 39.0726 103.122 58.3938C115.97 77.7142 110.705 103.886 91.3835 116.735ZM47.2143 50.3176C29.9124 61.8239 25.197 85.262 36.7032 102.564C48.2099 119.866 71.6476 124.581 88.9499 113.075C106.252 101.568 110.967 78.1305 99.4605 60.8286C87.9538 43.5255 64.5165 38.8113 47.2143 50.3176Z" fill="#AEADB3"/>
<g opacity="0.4">
<path d="M73.8345 44.4735C83.9338 46.0385 93.3689 51.6677 99.46 60.8282C110.967 78.13 106.252 101.567 88.9494 113.074C79.8248 119.143 68.9953 120.695 59.1079 118.272C75.2118 123.149 92.7536 117.521 101.353 102.131C107.829 90.4314 110.649 76.4116 103.957 63.9661C97.9363 53.0438 86.0472 45.0499 73.8345 44.4735Z" fill="#F2F2F4"/>
<path d="M27.7192 86.6828C25.788 69.4875 37.148 52.4289 52.1559 44.0325C54.6492 42.6494 57.1949 41.4581 59.7789 40.4457C54.5681 41.4882 49.4715 43.5368 44.779 46.6567C25.4586 59.5052 20.1931 85.6775 33.042 104.999C40.7888 116.647 53.3781 123.183 66.3884 123.724C47.3781 120.355 29.5818 106.355 27.7192 86.6828Z" fill="#F2F2F4"/>
</g>
<path opacity="0.5" d="M54.2011 68.1473C56.1511 71.0796 55.3548 75.0364 52.423 76.986C49.4915 78.9359 45.5343 78.1396 43.5844 75.2082C41.6344 72.2763 42.4303 68.3196 45.3621 66.3696C48.2944 64.42 52.2516 65.2159 54.2011 68.1473Z" fill="#F2F2F4"/>
<path opacity="0.3" d="M79.3794 72.905C81.0769 71.9917 82.7284 71.0039 84.3494 69.9656C81.943 65.6807 79.0228 61.7452 75.4702 58.4288C73.8371 59.6435 72.1822 60.8445 70.5044 62.0002C72.0548 63.482 73.4893 65.1469 74.6994 66.6179C76.4103 68.6978 77.9682 70.7949 79.3794 72.905Z" fill="white"/>
<path opacity="0.3" d="M81.65 76.5395C84.4585 81.3574 86.4925 86.233 87.7231 91.1311C88.2744 90.8807 88.8304 90.6374 89.38 90.3988C89.7997 90.2207 90.2093 90.0426 90.6073 89.8629C90.9897 89.6915 91.3743 89.5176 91.758 89.3441C90.4284 84.0318 88.6561 78.6918 86.2801 73.6971C84.7657 74.692 83.2262 75.6454 81.65 76.5395Z" fill="white"/>
<path opacity="0.3" d="M87.5364 67.8418C89.3284 66.6054 91.0945 65.3259 92.853 64.0368C91.994 62.904 91.0326 61.7345 89.9533 60.5122L89.0245 59.4564C86.9726 57.1248 85.0009 54.883 82.8239 52.8557C81.9745 53.5003 81.131 54.1457 80.2929 54.7819C79.8419 55.125 79.3854 55.4724 78.9307 55.8177C82.3495 59.3631 85.1844 63.4487 87.5364 67.8418Z" fill="white"/>
<path opacity="0.3" d="M89.3926 71.582C91.7957 76.8112 93.5956 82.3644 94.9415 87.8932C95.7955 87.5012 96.6457 87.1091 97.483 86.7208C98.469 86.2656 99.4718 85.8049 100.478 85.3409C99.8079 80.7287 99.0534 75.9978 97.2572 71.5327C96.7126 70.1767 96.02 68.8124 95.1652 67.4083C93.2511 68.8157 91.335 70.221 89.3926 71.582Z" fill="white"/>
<path d="M172.222 118.713L173.722 121.764L179.005 122.298L182.961 111.572L183.331 106.573L181.148 104.114L177.328 104.492L174.221 111.4L172.222 118.713Z" fill="#9C9CA0"/>
<path d="M185.84 105.752C185.122 105.427 184.365 105.201 183.569 104.966C182.925 104.775 182.261 104.578 181.619 104.32C181.471 104.264 181.317 104.193 181.149 104.114C180.641 103.882 180.066 103.62 179.608 103.671C179.269 103.707 179.113 103.879 178.897 104.117C178.828 104.196 178.751 104.278 178.664 104.362L180.687 104.912L180.858 105.542C180.837 106.251 180.792 106.94 180.724 107.617C184.073 108.039 187.697 109.751 188.527 113.326C189.499 116.376 188.032 120.52 184.008 120.028C180.814 119.077 182.217 114.572 179.742 112.633C179.673 112.868 179.605 113.102 179.532 113.343C178.634 116.204 177.514 118.496 176.106 121.064L176.042 121.133L175.396 121.599L175.292 121.569L173.453 120.981C173.543 121.877 173.952 122.286 174.965 122.626C175.474 122.795 175.973 122.975 176.469 123.156C177.262 123.443 178.079 123.744 178.897 123.982C181.695 124.798 184.03 124.919 186.379 122.856C187.861 121.548 189.635 119.74 190.201 117.304C191.013 114.927 190.836 113.947 190.406 111.577L190.287 110.907C189.877 108.606 188.425 106.916 185.84 105.752Z" fill="#908F93"/>
<path d="M179.673 111.176C179.079 110.45 178.29 109.892 177.263 109.717C177.062 110.738 176.8 111.737 176.518 112.707C176.902 112.645 177.269 112.647 177.554 112.704C178.064 112.997 178.613 113.639 178.715 114.393C178.851 114.008 178.984 113.616 179.11 113.211C179.327 112.518 179.513 111.843 179.673 111.176Z" fill="#A6A5AA"/>
<path d="M177.553 112.704C177.268 112.646 176.901 112.645 176.518 112.707C176.152 113.97 175.747 115.176 175.359 116.264C175.272 116.513 175.167 116.755 175.067 116.999C175.161 117.113 175.26 117.22 175.353 117.336C175.26 117.22 175.16 117.113 175.067 116.999C174.859 117.498 174.641 117.993 174.421 118.474C174.233 118.882 174.042 119.295 173.869 119.707C173.839 119.774 173.809 119.84 173.782 119.918C173.699 120.12 173.614 120.34 173.499 120.533L175.319 121.117L175.745 120.808C176.93 118.647 177.908 116.676 178.715 114.393C178.613 113.639 178.064 112.997 177.553 112.704Z" fill="#908F93"/>
<path d="M177.871 104.599C177.848 104.842 177.853 105.087 177.858 105.348C177.863 105.635 177.867 105.927 177.836 106.222C177.742 107.095 177.587 107.978 177.428 108.843C177.395 109.02 177.362 109.198 177.329 109.374L177.304 109.518C177.29 109.584 177.275 109.651 177.262 109.718C178.289 109.893 179.079 110.45 179.673 111.177C180.12 109.319 180.357 107.523 180.42 105.566L180.336 105.273L177.871 104.599Z" fill="#908F93"/>
<path d="M123.938 104.692L172.333 120.162C172.979 118.744 173.575 117.33 174.108 115.913C162.168 102.72 142.32 101.656 125.733 96.6423C125.035 99.3004 124.411 102 123.938 104.692Z" fill="#32353A"/>
<path d="M126.468 93.9441C126.217 94.8382 125.97 95.7369 125.732 96.6427C142.32 101.656 162.168 102.72 174.108 115.914C175.04 113.44 175.787 110.953 176.322 108.407C160.029 101.973 143.154 98.4242 126.468 93.9441Z" fill="#4B4F56"/>
<path d="M176.984 104.359L127.363 90.8455C127.059 91.8658 126.76 92.9016 126.468 93.9437C143.155 98.4238 160.03 101.972 176.323 108.406C176.603 107.076 176.826 105.73 176.984 104.359Z" fill="#32353A"/>
<path d="M176.984 104.359C176.826 105.73 176.603 107.076 176.323 108.406C175.788 110.952 175.041 113.439 174.109 115.913C173.576 117.33 172.979 118.744 172.333 120.162L172.999 120.375C172.995 120.361 172.997 120.35 172.997 120.334L173.104 120.335C173.21 120.17 173.295 119.955 173.373 119.756C173.405 119.677 173.435 119.603 173.462 119.533C173.639 119.114 173.829 118.703 174.024 118.288C174.272 117.744 174.519 117.184 174.744 116.621C174.811 116.453 174.885 116.286 174.945 116.118C175.645 114.154 176.422 111.821 176.869 109.437L176.897 109.293C176.935 109.089 176.973 108.882 177.011 108.675C177.164 107.847 177.309 107.004 177.399 106.176C177.428 105.908 177.423 105.638 177.419 105.355C177.415 105.072 177.412 104.773 177.442 104.484L176.984 104.359Z" fill="#1E2123"/>
<path d="M125.264 93.6223C125.665 93.7314 126.067 93.8367 126.468 93.9441C126.76 92.902 127.059 91.8662 127.363 90.8459L125.259 90.2728C125.258 90.3109 125.25 90.3476 125.243 90.3836C124.993 91.8015 124.599 93.2264 124.218 94.5983C123.997 95.4009 123.767 96.2235 123.57 97.0302C123.366 97.8834 123.179 98.7691 123 99.6268C122.693 101.094 122.382 102.595 121.935 104.053L123.938 104.693C124.411 102.001 125.036 99.3012 125.733 96.6431C125.495 96.5717 125.254 96.5014 125.017 96.4275C125.254 96.5014 125.495 96.5713 125.733 96.6431C125.97 95.7373 126.217 94.8386 126.468 93.9441C126.066 93.8363 125.665 93.7314 125.264 93.6223Z" fill="#1E2123"/>
<path d="M173.433 120.513L173.066 120.399C173.079 120.379 173.093 120.359 173.104 120.336" fill="#908F93"/>
<path d="M173.433 120.513L173.499 120.533C173.478 120.574 173.456 120.604 173.437 120.638C173.433 120.599 173.431 120.557 173.433 120.513Z" fill="#908F93"/>
<path d="M172.997 120.334L173.104 120.335C173.093 120.359 173.079 120.378 173.066 120.398L172.998 120.375C172.994 120.361 172.997 120.35 172.997 120.334Z" fill="#908F93"/>
<path d="M172.993 120.488C172.992 120.453 172.994 120.415 172.998 120.375L172.993 120.488Z" fill="#908F93"/>
<path d="M172.993 120.488C172.991 120.5 172.993 120.51 172.995 120.514L172.982 120.502C172.985 120.499 172.99 120.491 172.993 120.488Z" fill="#908F93"/>
<path d="M111.12 98.514L118.082 100.576C118.264 99.2372 118.48 97.9385 118.74 96.6677C116.803 96.0921 114.922 95.2892 113.004 94.4636C112.495 95.8368 111.856 97.1848 111.12 98.514Z" fill="#908F93"/>
<path d="M120.164 91.419L114.194 89.6345C114.131 90.1875 114.038 90.7343 113.927 91.2781C115.831 91.9168 117.682 92.65 119.547 93.3585C119.734 92.7064 119.941 92.0602 120.164 91.419Z" fill="#908F93"/>
<path d="M113.278 89.3616C113.243 89.8602 113.163 90.4074 113.049 90.9855C112.855 91.9695 112.562 93.0437 112.213 94.1226C111.738 95.5935 111.163 97.0753 110.599 98.3586L111.12 98.5141C111.857 97.1853 112.495 95.8368 113.004 94.4637C113.392 93.4174 113.707 92.3582 113.927 91.2781C114.038 90.7347 114.131 90.1875 114.194 89.6345L113.278 89.3616Z" fill="#6A696D"/>
<path d="M119.547 93.3585C117.682 92.6495 115.831 91.9168 113.927 91.2781C113.707 92.3578 113.392 93.4174 113.004 94.4637C114.922 95.2892 116.803 96.0922 118.74 96.6678C118.971 95.5446 119.234 94.4428 119.547 93.3585Z" fill="#A6A5AA"/>
<path d="M120.164 91.4189C119.941 92.0606 119.734 92.7068 119.547 93.3589C119.234 94.4432 118.97 95.545 118.74 96.6682C118.48 97.9389 118.264 99.2376 118.081 100.577L118.523 100.708L119.739 96.9432L120.751 93.8141L121.404 91.7897L120.164 91.4189Z" fill="#6A696D"/>
<path d="M119.426 96.4578C117.452 103.05 118.72 104.091 121.877 104.674L123.781 97.1951C122.542 96.1714 121.035 95.4834 119.426 96.4578Z" fill="#908F93"/>
<path d="M120.276 93.7838C120.046 94.4618 119.799 95.2342 119.528 96.115C119.492 96.232 119.461 96.344 119.426 96.4577C121.036 95.4829 122.542 96.1714 123.781 97.1951L124.453 94.5554C123.061 93.9234 121.67 92.9741 120.276 93.7838Z" fill="#A6A5AA"/>
<path d="M120.276 93.7838C121.67 92.9741 123.061 93.9234 124.453 94.5554L125.653 89.8429C122.722 89.0219 121.88 89.0779 120.276 93.7838Z" fill="#908F93"/>
<path opacity="0.2" d="M176.636 120.081C176.465 120.404 176.287 120.732 176.105 121.063L176.04 121.133L175.395 121.599L175.291 121.569L173.452 120.981C173.542 121.877 173.951 122.286 174.964 122.626C175.472 122.795 175.971 122.974 176.468 123.156C177.261 123.443 178.078 123.744 178.896 123.982C181.694 124.798 184.029 124.919 186.378 122.855C187.132 122.189 187.962 121.393 188.67 120.451C185.004 122.133 180.479 121.925 176.636 120.081Z" fill="#211915"/>
<path opacity="0.2" d="M174.42 118.474C174.232 118.882 174.041 119.294 173.867 119.706C173.837 119.773 173.808 119.84 173.78 119.918C173.698 120.12 173.613 120.34 173.498 120.532L175.317 121.117L175.744 120.807C176.158 120.054 176.542 119.324 176.907 118.597C176.154 118.32 175.471 117.954 174.917 117.367C174.755 117.741 174.586 118.11 174.42 118.474Z" fill="#211915"/>
<path opacity="0.1" d="M180.334 105.272L177.87 104.599C177.847 104.842 177.851 105.087 177.856 105.348C177.862 105.635 177.865 105.927 177.835 106.223C177.737 107.134 177.571 108.058 177.404 108.96C178.244 108.596 179.258 108.938 180.019 109.508C180.245 108.222 180.375 106.933 180.419 105.565L180.334 105.272Z" fill="#211915"/>
<path opacity="0.3" d="M122.227 104.129L172.875 120.258C172.871 120.245 173.42 118.707 173.614 118.293C173.904 117.657 174.341 117.05 174.592 116.388C157.15 111.336 140.553 105.811 123.043 100.878C122.809 101.965 122.556 103.058 122.227 104.129Z" fill="#211915"/>
<path opacity="0.1" d="M177.71 105.433C177.706 105.149 177.703 104.85 177.733 104.561L125.551 90.3499C125.55 90.3879 125.542 90.4247 125.534 90.4606C125.489 90.7261 125.433 90.9919 125.376 91.2565C142.469 97.8224 160.073 101.846 177.711 105.698C177.711 105.61 177.711 105.523 177.71 105.433Z" fill="#211915"/>
<path opacity="0.1" d="M115.036 89.8859L113.277 89.3613C113.255 89.6757 113.214 90.0117 113.158 90.3603C112.84 92.383 112.015 94.904 111.129 97.0952C110.953 97.5307 110.775 97.9554 110.598 98.3584L112.218 98.8391L118.521 100.707L118.89 99.5676C116.798 98.8474 114.71 98.0561 112.61 97.4718C113.3 95.2209 114.157 93.0468 114.792 90.8001C116.891 91.3681 119.018 91.9559 121.167 92.5214L121.403 91.7887L115.036 89.8859Z" fill="#211915"/>
<path opacity="0.1" d="M123.893 89.4592C123.113 89.3865 122.529 89.562 121.994 90.1639C121.215 91.0392 120.541 92.8212 119.528 96.115C118.558 99.273 118.296 101.208 118.604 102.434C118.79 103.175 119.183 103.659 119.754 103.997C120.305 104.324 121.021 104.516 121.876 104.674L122.184 103.466C121.306 103.454 120.452 103.397 119.681 103.095C119.454 98.8349 120.947 94.4727 123.158 90.6705C123.842 91.035 124.487 91.4869 125.113 91.9634L125.653 89.8433C124.962 89.6498 124.389 89.5064 123.893 89.4592Z" fill="#211915"/>
<g opacity="0.3">
<path d="M50.6849 198.091C45.0921 194.599 40.6822 190.065 37.548 184.947C40.209 188.595 43.6487 191.845 47.825 194.452C64.9671 205.152 87.9342 201.026 99.1215 185.236C110.308 169.445 105.482 147.97 88.3388 137.27C71.2096 126.578 48.2668 130.69 37.0698 146.45C37.6554 145.443 38.29 144.451 38.9792 143.478C51.8139 125.362 77.8645 120.443 97.164 132.49C116.463 144.537 121.705 168.989 108.87 187.104C96.0354 205.219 69.984 210.138 50.6849 198.091Z" fill="#3F3A36"/>
<path d="M79.2036 204.37C106.262 198.066 122.425 174.322 111.906 151.533C105.89 138.561 98.5921 133.064 82.7909 126.778C87.781 127.789 92.6565 129.677 97.1638 132.49C116.463 144.537 121.705 168.99 108.869 187.104C101.848 197.016 90.8683 202.977 79.2036 204.37Z" fill="#544C47"/>
<path d="M62.6465 128.185C69.4428 128.186 76.489 129.304 83.4207 130.88C69.1448 128.178 54.0257 133.449 45.5947 145.348C34.4065 161.138 39.2352 182.613 56.377 193.314C63.7037 197.887 72.0925 199.746 80.1716 199.148C76.8101 201.087 73.4443 203.05 69.926 204.677C62.2131 204.535 54.4517 202.401 47.5517 198.094C28.2527 186.047 23.0114 161.595 35.8461 143.481C41.6446 135.296 50.1408 129.806 59.494 127.357C60.3927 127.877 61.4402 128.185 62.6465 128.185Z" fill="#68615D"/>
<path opacity="0.5" d="M48.4984 193.501C31.9263 183.156 27.259 162.395 38.0747 147.13C48.8905 131.865 71.0929 127.876 87.665 138.22C104.237 148.566 108.905 169.326 98.0891 184.592C87.2737 199.857 65.0708 203.846 48.4984 193.501Z" fill="#B5DBEA"/>
<path opacity="0.3" d="M47.5522 198.094C28.2532 186.047 23.0119 161.595 35.8465 143.481C41.645 135.296 50.1413 129.806 59.4945 127.357C60.3928 127.877 61.4407 128.185 62.647 128.185C69.4433 128.186 76.4895 129.304 83.4212 130.88C75.8303 129.443 68.0012 130.261 61.0662 133.131C47.3018 135.969 35.4494 148.379 34.7928 161.631C34.1925 169.185 35.7868 176.623 40.3062 182.914C48.7569 193.794 61.4152 200.054 75.0809 202.045C73.3884 202.976 71.6763 203.867 69.9269 204.677C62.2136 204.535 54.4517 202.401 47.5522 198.094Z" fill="#68615D"/>
<path opacity="0.5" d="M58.1241 197.774C54.7955 196.822 51.551 195.407 48.4984 193.501C31.9263 183.156 27.259 162.395 38.0747 147.13C48.8905 131.865 71.0929 127.876 87.665 138.22C91.0558 140.338 93.9387 142.896 96.3021 145.748C77.3019 158.44 62.3935 175.966 58.1241 197.774Z" fill="url(#paint1_radial_1_1403)"/>
<path d="M100.036 185.808C88.5309 202.047 64.8362 206.31 47.2162 195.311C29.5958 184.312 24.6216 162.153 36.1271 145.915C47.6325 129.676 71.3273 125.413 88.9473 136.412C106.567 147.41 111.541 169.569 100.036 185.808ZM98.2059 184.665C109.04 169.374 104.341 148.498 87.73 138.13C71.1195 127.761 48.7917 131.766 37.9579 147.057C27.1238 162.349 31.8234 183.224 48.4334 193.592C65.0435 203.961 87.3718 199.957 98.2059 184.665Z" fill="#908F93"/>
<path d="M103.122 187.734C90.2725 205.868 64.1006 210.81 44.779 198.75C25.4586 186.69 20.1931 162.124 33.042 143.989C45.8913 125.854 72.0631 120.912 91.3835 132.973C110.705 145.033 115.97 169.598 103.122 187.734ZM99.4601 185.447C110.967 169.208 106.252 147.209 88.9495 136.408C71.6472 125.608 48.2095 130.034 36.7028 146.274C25.1965 162.515 29.912 184.514 47.2139 195.314C64.5165 206.114 87.9538 201.689 99.4601 185.447Z" fill="#AEADB3"/>
<g opacity="0.4">
<path d="M73.8345 200.799C83.9338 199.329 93.3689 194.046 99.46 185.447C110.967 169.208 106.252 147.209 88.9494 136.408C79.8248 130.713 68.9953 129.256 59.1079 131.529C75.2118 126.951 92.7536 132.234 101.353 146.68C107.829 157.661 110.649 170.821 103.957 182.502C97.9363 192.755 86.0472 200.258 73.8345 200.799Z" fill="#F2F2F4"/>
<path d="M27.7192 161.181C25.788 177.321 37.148 193.332 52.1559 201.213C54.6492 202.511 57.1949 203.629 59.7789 204.58C54.5681 203.601 49.4715 201.679 44.779 198.75C25.4586 186.69 20.1931 162.124 33.042 143.989C40.7888 133.056 53.3781 126.92 66.3884 126.412C47.3781 129.575 29.5818 142.715 27.7192 161.181Z" fill="#F2F2F4"/>
</g>
<path d="M172.222 131.116L173.722 128.252L179.005 127.751L182.961 137.819L183.331 142.511L181.148 144.819L177.328 144.464L174.221 137.981L172.222 131.116Z" fill="#9C9CA0"/>
<path d="M185.84 143.282C185.122 143.586 184.365 143.798 183.569 144.02C182.925 144.199 182.261 144.383 181.619 144.626C181.472 144.678 181.317 144.746 181.149 144.819C180.641 145.037 180.066 145.283 179.608 145.235C179.269 145.201 179.113 145.04 178.897 144.817C178.828 144.743 178.751 144.666 178.664 144.587L180.687 144.07L180.858 143.479C180.837 142.813 180.792 142.166 180.724 141.532C184.074 141.135 187.697 139.528 188.527 136.172C189.499 133.31 188.032 129.421 184.008 129.882C180.814 130.775 182.217 135.003 179.742 136.823C179.673 136.602 179.606 136.383 179.532 136.157C178.635 133.47 177.514 131.32 176.106 128.91L176.042 128.845L175.396 128.406L175.292 128.435L173.453 128.987C173.543 128.146 173.953 127.763 174.965 127.444C175.474 127.285 175.973 127.116 176.469 126.946C177.262 126.677 178.079 126.394 178.897 126.171C181.695 125.405 184.03 125.291 186.379 127.228C187.861 128.455 189.635 130.153 190.201 132.44C191.013 134.67 190.836 135.591 190.406 137.815L190.287 138.444C189.877 140.603 188.425 142.189 185.84 143.282Z" fill="#908F93"/>
<path d="M179.673 138.191C179.08 138.873 178.29 139.396 177.263 139.56C177.062 138.602 176.8 137.665 176.518 136.753C176.902 136.812 177.269 136.811 177.554 136.756C178.064 136.482 178.613 135.879 178.715 135.171C178.851 135.532 178.984 135.9 179.11 136.281C179.327 136.931 179.513 137.564 179.673 138.191Z" fill="#A6A5AA"/>
<path d="M177.553 136.756C177.268 136.811 176.901 136.812 176.518 136.753C176.152 135.569 175.747 134.436 175.359 133.415C175.272 133.182 175.168 132.954 175.067 132.726C175.161 132.619 175.26 132.518 175.354 132.41C175.26 132.518 175.16 132.619 175.067 132.726C174.859 132.257 174.641 131.793 174.421 131.341C174.233 130.957 174.042 130.57 173.869 130.184C173.839 130.121 173.809 130.058 173.782 129.985C173.699 129.796 173.614 129.589 173.499 129.409L175.319 128.859L175.746 129.15C176.93 131.179 177.908 133.028 178.715 135.171C178.613 135.879 178.064 136.482 177.553 136.756Z" fill="#908F93"/>
<path d="M177.871 144.364C177.848 144.136 177.853 143.906 177.858 143.66C177.863 143.391 177.867 143.118 177.836 142.84C177.742 142.021 177.587 141.193 177.428 140.38C177.395 140.214 177.362 140.047 177.329 139.882L177.304 139.747C177.29 139.685 177.275 139.623 177.262 139.56C178.289 139.396 179.079 138.872 179.673 138.191C180.12 139.934 180.357 141.62 180.42 143.457L180.336 143.732L177.871 144.364Z" fill="#908F93"/>
<path d="M123.938 144.277L172.333 129.756C172.979 131.087 173.575 132.415 174.108 133.744C162.168 146.128 142.32 147.127 125.733 151.832C125.035 149.337 124.411 146.804 123.938 144.277Z" fill="#32353A"/>
<path d="M126.468 154.365C126.217 153.526 125.97 152.683 125.732 151.833C142.32 147.127 162.168 146.128 174.108 133.745C175.04 136.067 175.787 138.402 176.322 140.79C160.029 146.829 143.155 150.159 126.468 154.365Z" fill="#4B4F56"/>
<path d="M176.984 144.589L127.363 157.273C127.059 156.315 126.76 155.344 126.468 154.365C143.155 150.16 160.03 146.829 176.323 140.79C176.603 142.039 176.826 143.302 176.984 144.589Z" fill="#32353A"/>
<path d="M176.984 144.589C176.826 143.302 176.602 142.039 176.323 140.79C175.787 138.401 175.041 136.067 174.108 133.744C173.575 132.415 172.979 131.087 172.333 129.756L172.998 129.556C172.994 129.569 172.997 129.581 172.997 129.596L173.104 129.594C173.21 129.749 173.295 129.951 173.373 130.138C173.405 130.212 173.435 130.281 173.462 130.347C173.638 130.74 173.828 131.126 174.024 131.515C174.272 132.026 174.518 132.552 174.744 133.081C174.81 133.238 174.884 133.395 174.945 133.553C175.645 135.397 176.422 137.586 176.869 139.824L176.896 139.959C176.934 140.151 176.973 140.345 177.011 140.54C177.164 141.316 177.308 142.108 177.399 142.885C177.428 143.136 177.422 143.39 177.419 143.655C177.415 143.92 177.412 144.201 177.442 144.473L176.984 144.589Z" fill="#1E2123"/>
<path d="M125.264 154.667C125.665 154.565 126.067 154.466 126.468 154.365C126.76 155.344 127.059 156.315 127.364 157.273L125.259 157.811C125.258 157.775 125.251 157.741 125.243 157.707C124.993 156.376 124.599 155.039 124.218 153.751C123.997 152.998 123.767 152.226 123.57 151.469C123.366 150.668 123.179 149.837 123 149.032C122.693 147.654 122.382 146.247 121.935 144.878L123.938 144.277C124.411 146.804 125.036 149.337 125.733 151.832C125.97 152.682 126.217 153.526 126.468 154.365C126.066 154.466 125.665 154.565 125.264 154.667Z" fill="#1E2123"/>
<path d="M173.433 129.427L173.066 129.535C173.08 129.553 173.093 129.571 173.104 129.594" fill="#908F93"/>
<path d="M173.433 129.427L173.499 129.409C173.478 129.37 173.456 129.342 173.437 129.311C173.433 129.346 173.431 129.385 173.433 129.427Z" fill="#908F93"/>
<path d="M172.997 129.595L173.104 129.594C173.093 129.571 173.08 129.553 173.066 129.534L172.998 129.556C172.994 129.569 172.997 129.58 172.997 129.595Z" fill="#908F93"/>
<path d="M172.993 129.45C172.992 129.484 172.994 129.519 172.998 129.556L172.993 129.45Z" fill="#908F93"/>
<path d="M172.993 129.45C172.991 129.439 172.993 129.43 172.995 129.426L172.982 129.437C172.985 129.44 172.99 129.447 172.993 129.45Z" fill="#908F93"/>
<path d="M111.12 150.075L118.082 148.139C118.264 149.397 118.48 150.616 118.74 151.808C116.803 152.349 114.922 153.102 113.004 153.877C112.495 152.588 111.856 151.323 111.12 150.075Z" fill="#908F93"/>
<path d="M113.278 158.667C113.243 158.198 113.163 157.685 113.049 157.143C112.855 156.219 112.562 155.211 112.213 154.198C111.738 152.817 111.163 151.426 110.599 150.222L111.12 150.076C111.857 151.323 112.495 152.589 113.004 153.878C113.392 154.86 113.707 155.854 113.927 156.867C114.038 157.378 114.131 157.891 114.194 158.41L113.278 158.667Z" fill="#6A696D"/>
<path d="M119.547 154.914C117.682 155.58 115.831 156.267 113.927 156.867C113.707 155.854 113.392 154.86 113.004 153.878C114.922 153.103 116.803 152.349 118.74 151.809C118.971 152.863 119.234 153.897 119.547 154.914Z" fill="#A6A5AA"/>
<path d="M120.164 156.735C119.941 156.134 119.734 155.527 119.547 154.915C119.234 153.897 118.97 152.863 118.74 151.809C118.48 150.616 118.264 149.397 118.081 148.14L118.523 148.017L119.739 151.551L120.751 154.488L121.404 156.388L120.164 156.735Z" fill="#6A696D"/>
<path d="M119.426 152.005C117.452 145.818 118.72 144.84 121.877 144.293L123.781 151.313C122.542 152.274 121.035 152.92 119.426 152.005Z" fill="#908F93"/>
<path d="M120.276 154.515C120.046 153.879 119.799 153.154 119.528 152.327C119.492 152.217 119.461 152.112 119.426 152.005C121.036 152.92 122.542 152.274 123.781 151.313L124.453 153.791C123.061 154.384 121.67 155.275 120.276 154.515Z" fill="#A6A5AA"/>
<path opacity="0.2" d="M176.635 129.832C176.464 129.528 176.287 129.22 176.105 128.909L176.04 128.845L175.395 128.406L175.29 128.435L173.452 128.987C173.541 128.145 173.951 127.763 174.963 127.444C175.472 127.285 175.971 127.116 176.468 126.946C177.26 126.677 178.078 126.394 178.895 126.171C181.693 125.405 184.028 125.291 186.377 127.228C187.132 127.853 187.961 128.6 188.67 129.485C185.004 127.906 180.478 128.101 176.635 129.832Z" fill="#211915"/>
<path opacity="0.2" d="M174.42 131.341C174.232 130.957 174.041 130.57 173.868 130.184C173.837 130.121 173.808 130.058 173.781 129.985C173.698 129.796 173.613 129.589 173.498 129.409L175.318 128.859L175.744 129.15C176.158 129.858 176.542 130.543 176.907 131.226C176.154 131.485 175.471 131.828 174.917 132.38C174.755 132.028 174.586 131.682 174.42 131.341Z" fill="#211915"/>
<path opacity="0.1" d="M180.334 143.732L177.87 144.363C177.847 144.136 177.851 143.906 177.856 143.66C177.862 143.391 177.865 143.118 177.835 142.84C177.737 141.984 177.571 141.117 177.404 140.271C178.244 140.612 179.258 140.291 180.019 139.756C180.245 140.963 180.375 142.173 180.419 143.457L180.334 143.732Z" fill="#211915"/>
<path opacity="0.3" d="M122.227 144.805L172.875 129.665C172.871 129.678 173.42 131.12 173.614 131.51C173.904 132.106 174.341 132.676 174.592 133.298C157.15 138.04 140.553 143.226 123.043 147.857C122.809 146.836 122.556 145.81 122.227 144.805Z" fill="#211915"/>
<path opacity="0.1" d="M177.71 143.58C177.706 143.847 177.703 144.128 177.733 144.399L125.551 157.738C125.55 157.703 125.542 157.668 125.534 157.634C125.489 157.385 125.433 157.135 125.376 156.887C142.469 150.724 160.073 146.948 177.711 143.332C177.711 143.415 177.711 143.496 177.71 143.58Z" fill="#211915"/>
<path opacity="0.1" d="M115.036 158.174L113.277 158.667C113.255 158.371 113.214 158.056 113.158 157.729C112.84 155.83 112.015 153.464 111.129 151.407C110.953 150.998 110.775 150.6 110.598 150.222L112.218 149.77L118.521 148.017L118.89 149.086C116.798 149.763 114.71 150.505 112.61 151.054C113.3 153.166 114.157 155.207 114.792 157.316C116.891 156.783 119.018 156.231 121.167 155.7L121.403 156.388L115.036 158.174Z" fill="#211915"/>
<path opacity="0.1" d="M123.893 158.574C123.113 158.643 122.529 158.478 121.994 157.913C121.215 157.091 120.541 155.418 119.528 152.327C118.558 149.363 118.296 147.547 118.604 146.396C118.79 145.701 119.183 145.247 119.754 144.929C120.305 144.623 121.021 144.442 121.876 144.293L122.184 145.428C121.306 145.439 120.452 145.492 119.681 145.775C119.454 149.774 120.947 153.869 123.158 157.437C123.842 157.096 124.487 156.671 125.113 156.224L125.653 158.214C124.962 158.396 124.389 158.53 123.893 158.574Z" fill="#211915"/>
</g>
<defs>
<radialGradient id="paint0_radial_1_1403" cx="0" cy="0" r="1" gradientUnits="userSpaceOnUse" gradientTransform="translate(68.6482 78.9233) rotate(144.988) scale(46.4859 77.6071)">
<stop offset="0.1452" stop-color="white"/>
<stop offset="1" stop-color="#5982BD" stop-opacity="0"/>
</radialGradient>
<radialGradient id="paint1_radial_1_1403" cx="0" cy="0" r="1" gradientUnits="userSpaceOnUse" gradientTransform="translate(68.6458 168.472) rotate(-146.678) scale(45.5644 74.3148)">
<stop offset="0.1452" stop-color="white"/>
<stop offset="1" stop-color="#5982BD" stop-opacity="0"/>
</radialGradient>
</defs>
</svg>
