<svg width="120" height="118" viewBox="0 0 120 118" fill="none" xmlns="http://www.w3.org/2000/svg">
<rect x="13" y="12" width="94" height="94" rx="13" fill="#15B6C9"/>
<rect x="13" y="12" width="94" height="94" rx="13" stroke="#0E8B9A" stroke-width="6"/>
<rect x="13" y="12" width="94" height="94" rx="13" stroke="#0E8B9A" stroke-width="6"/>
<rect x="31" y="29.5" width="59" height="59" rx="7.5" stroke="white"/>
<path d="M55.3977 67.8L38.5977 61.6V56.4L55.3977 50.2V54.32L42.6777 58.68V59.32L55.3977 63.68V67.8Z" fill="white"/>
<path d="M66.6023 67.8L83.4023 61.6V56.4L66.6023 50.2V54.32L79.3223 58.68V59.32L66.6023 63.68V67.8Z" fill="white"/>
<rect x="0.5" y="0.5" width="119" height="117" rx="24.5" stroke="#0E8B9A"/>
<rect x="0.5" y="0.5" width="119" height="117" rx="24.5" stroke="#0E8B9A"/>
<rect x="4.5" y="4.5" width="111" height="109" rx="21.5" stroke="#0E8B9A"/>
<rect x="4.5" y="4.5" width="111" height="109" rx="21.5" stroke="#0E8B9A"/>
</svg>
